<?xml version="1.0" standalone="no"?>
<!DOCTYPE svg PUBLIC "-//W3C//DTD SVG 20010904//EN"
 "http://www.w3.org/TR/2001/REC-SVG-20010904/DTD/svg10.dtd">
<svg version="1.0" xmlns="http://www.w3.org/2000/svg"
 width="156.000000pt" height="156.000000pt" viewBox="0 0 156.000000 156.000000"
 preserveAspectRatio="xMidYMid meet">
<metadata>
Created by potrace 1.11, written by Peter Selinger 2001-2013
</metadata>
<g transform="translate(0.000000,156.000000) scale(0.100000,-0.100000)"
fill="#000000" stroke="none">
<path d="M957 1554 c-2 -2 -16 -4 -33 -6 -23 -1 -30 -7 -32 -27 -7 -67 -1 -91
41 -171 42 -78 92 -206 102 -262 16 -80 17 -88 6 -88 -6 0 -18 15 -27 32 -61
118 -203 283 -323 377 -49 38 -59 42 -97 38 -24 -2 -47 0 -52 5 -5 5 -16 6
-26 2 -16 -6 -16 -8 0 -25 11 -12 14 -27 9 -48 -8 -36 13 -81 50 -105 29 -19
185 -175 185 -185 0 -3 -40 -5 -89 -4 -145 3 -266 -42 -373 -137 -82 -73 -102
-109 -103 -189 0 -36 -4 -72 -8 -78 -5 -7 -4 -19 0 -27 7 -12 10 -12 21 0 7 8
11 14 8 14 -3 0 6 11 20 25 13 14 28 24 32 24 28 -5 51 9 110 64 81 76 103 91
164 111 50 18 168 24 208 12 247 -77 352 -355 211 -560 -71 -103 -180 -160
-306 -159 -161 1 -306 111 -344 259 -31 118 -35 129 -66 143 -16 8 -33 19 -37
24 -8 12 -62 -30 -76 -59 -15 -31 -6 -123 18 -187 116 -309 471 -447 761 -296
145 76 247 217 352 484 67 173 136 409 152 525 3 19 7 44 9 55 5 27 16 111 20
156 5 47 -17 96 -49 111 -14 6 -25 14 -25 18 0 3 -7 15 -16 26 -13 16 -15 16
-10 2 3 -12 -6 -26 -29 -43 -35 -27 -40 -41 -51 -135 -13 -121 -29 -205 -39
-203 -5 1 -15 29 -21 63 -26 126 -120 343 -170 393 -21 22 -68 40 -77 31z
m-422 -114 c3 -5 1 -10 -4 -10 -6 0 -11 5 -11 10 0 6 2 10 4 10 3 0 8 -4 11
-10z"/>
<path d="M630 882 c-70 -9 -148 -50 -206 -108 -48 -47 -51 -70 -15 -88 17 -9
37 -16 45 -16 8 0 16 -4 18 -8 7 -18 164 -87 191 -84 15 2 28 -2 28 -7 1 -6 2
-17 3 -23 2 -19 -13 -26 -48 -21 -17 2 -62 -7 -103 -21 -39 -13 -74 -22 -77
-18 -3 3 -6 0 -6 -6 0 -6 -21 -14 -47 -18 -27 -4 -51 -11 -54 -17 -14 -20 81
-157 109 -157 6 0 12 -3 14 -7 5 -13 97 -53 121 -53 12 0 28 -4 35 -9 20 -12
154 22 193 50 49 34 106 93 113 117 4 12 11 22 15 22 4 0 8 6 9 13 1 6 7 39
13 72 13 67 5 160 -13 149 -7 -5 -9 -1 -5 9 6 17 -30 97 -45 97 -4 0 -8 4 -8
10 0 15 -33 50 -46 50 -7 0 -14 3 -16 8 -5 11 -89 50 -128 58 -44 9 -59 10
-90 6z"/>
</g>
</svg>
